<?xml version="1.0" encoding="utf-8"?>
<!-- Generator: Adobe Illustrator 26.0.1, SVG Export Plug-In . SVG Version: 6.00 Build 0)  -->
<svg version="1.1" id="Layer_1" xmlns="http://www.w3.org/2000/svg" xmlns:xlink="http://www.w3.org/1999/xlink" x="0px" y="0px"
	 viewBox="0 0 419.5 595.3" style="enable-background:new 0 0 419.5 595.3;" xml:space="preserve">
<style type="text/css">
	.st0{fill-rule:evenodd;clip-rule:evenodd;fill:#2BC8ED;}
	.st1{fill-rule:evenodd;clip-rule:evenodd;fill:#22B6E7;}
	.st2{enable-background:new    ;}
	.st3{fill:#414A4E;}
</style>
<g>
	<g>
		<polygon class="st0" points="58.5,273.1 94.5,273.1 89,301.5 		"/>
		<polygon class="st1" points="137.9,281.5 126.1,278.7 125.5,285.9 		"/>
		<polygon class="st1" points="124.3,297.6 94.5,273.1 89,301.5 		"/>
		<polygon class="st0" points="111.8,287.4 126.1,278.7 124.3,297.6 		"/>
		<polygon class="st1" points="83.2,320.1 95.8,309.4 89,301.5 		"/>
		<polygon class="st1" points="58.5,288.5 70.3,284.1 89,301.5 		"/>
		<polygon class="st0" points="124.3,297.6 95.8,309.4 89,301.5 		"/>
	</g>
	<g class="st2">
		<path class="st3" d="M156.5,301.2h-7.4l-1.4,3.9h-2.4l6.3-16.6h2.5l6.2,16.6h-2.4L156.5,301.2z M155.9,299.5l-3.1-8.5l-3.1,8.5
			H155.9z"/>
		<path class="st3" d="M175.1,289.5c1.3,1,2.3,2.4,2.8,4.2h-2.3c-0.4-1.1-1.1-2-2.1-2.7c-1-0.7-2.1-1-3.5-1c-1.1,0-2.1,0.3-3,0.8
			c-0.9,0.5-1.6,1.3-2.1,2.3s-0.8,2.2-0.8,3.5c0,1.3,0.3,2.5,0.8,3.5c0.5,1,1.2,1.8,2.1,2.3c0.9,0.5,1.9,0.8,3,0.8
			c1.4,0,2.6-0.3,3.5-1s1.7-1.6,2.1-2.7h2.3c-0.5,1.8-1.4,3.1-2.8,4.2c-1.3,1-3,1.5-5.1,1.5c-1.6,0-3-0.4-4.2-1.1
			c-1.2-0.7-2.2-1.7-2.8-3c-0.7-1.3-1-2.8-1-4.5c0-1.7,0.3-3.2,1-4.5c0.7-1.3,1.6-2.3,2.8-3.1c1.2-0.7,2.6-1.1,4.2-1.1
			C172,288,173.8,288.5,175.1,289.5z"/>
		<path class="st3" d="M190.7,301.2h-7.4l-1.4,3.9h-2.4l6.3-16.6h2.5l6.2,16.6h-2.4L190.7,301.2z M190.1,299.5l-3.1-8.5l-3.1,8.5
			H190.1z"/>
		<path class="st3" d="M209.9,301.1c-0.7,1.3-1.7,2.3-3,3c-1.3,0.7-2.9,1-4.8,1h-5.4v-16.9h5.4c1.9,0,3.5,0.3,4.8,1
			c1.3,0.7,2.3,1.7,3,2.9c0.7,1.3,1,2.8,1,4.5C211,298.3,210.6,299.8,209.9,301.1z M207,301.4c1.2-1.1,1.8-2.7,1.8-4.8
			s-0.6-3.7-1.7-4.8c-1.2-1.1-2.9-1.7-5.1-1.7h-3v13h3C204.1,303.1,205.8,302.6,207,301.4z"/>
		<path class="st3" d="M216.1,290v5.8h6.4v1.7h-6.4v5.9h7.2v1.8h-9.3v-16.9h9.3v1.8H216.1z"/>
		<path class="st3" d="M243,288.5v16.6h-2.2v-13.3l-5.3,13.3h-1.9l-5.3-13.2v13.2H226v-16.6h2.6l5.9,14l5.8-14H243z"/>
		<path class="st3" d="M248.7,288.2v16.9h-2.2v-16.9H248.7z"/>
		<path class="st3" d="M264.8,289.5c1.3,1,2.3,2.4,2.8,4.2h-2.3c-0.4-1.1-1.1-2-2.1-2.7c-1-0.7-2.1-1-3.5-1c-1.1,0-2.1,0.3-3,0.8
			c-0.9,0.5-1.6,1.3-2.1,2.3s-0.8,2.2-0.8,3.5c0,1.3,0.3,2.5,0.8,3.5c0.5,1,1.2,1.8,2.1,2.3c0.9,0.5,1.9,0.8,3,0.8
			c1.4,0,2.6-0.3,3.5-1s1.7-1.6,2.1-2.7h2.3c-0.5,1.8-1.4,3.1-2.8,4.2c-1.3,1-3,1.5-5.1,1.5c-1.6,0-3-0.4-4.2-1.1
			c-1.2-0.7-2.2-1.7-2.8-3c-0.7-1.3-1-2.8-1-4.5c0-1.7,0.3-3.2,1-4.5c0.7-1.3,1.6-2.3,2.8-3.1c1.2-0.7,2.6-1.1,4.2-1.1
			C261.7,288,263.4,288.5,264.8,289.5z"/>
		<path class="st3" d="M286.8,288.2v1.8H282v15.1h-2.2V290h-4.8v-1.8H286.8z"/>
		<path class="st3" d="M291,288.2v10.2c0,1.7,0.4,2.9,1.1,3.7c0.7,0.8,1.8,1.2,3,1.2c1.3,0,2.3-0.4,3-1.2c0.7-0.8,1.1-2,1.1-3.7
			v-10.2h2.2v10.2c0,2.3-0.6,4-1.7,5.2c-1.1,1.2-2.7,1.7-4.6,1.7c-1.9,0-3.4-0.6-4.6-1.7s-1.7-2.9-1.7-5.2v-10.2H291z"/>
		<path class="st3" d="M315.2,288.2v1.8h-4.8v15.1h-2.2V290h-4.8v-1.8H315.2z"/>
		<path class="st3" d="M329.3,289.1c1.3,0.7,2.2,1.8,3,3.1c0.7,1.3,1.1,2.8,1.1,4.5s-0.4,3.2-1.1,4.5c-0.7,1.3-1.7,2.3-3,3.1
			c-1.3,0.7-2.7,1.1-4.2,1.1c-1.6,0-3-0.4-4.3-1.1c-1.3-0.7-2.3-1.8-3-3.1c-0.7-1.3-1.1-2.8-1.1-4.5s0.4-3.2,1.1-4.5
			c0.7-1.3,1.7-2.3,3-3.1c1.3-0.7,2.7-1.1,4.3-1.1C326.7,288,328.1,288.3,329.3,289.1z M322,290.8c-0.9,0.5-1.6,1.3-2.2,2.3
			c-0.5,1-0.8,2.2-0.8,3.5c0,1.3,0.3,2.5,0.8,3.5c0.5,1,1.2,1.8,2.2,2.3s2,0.8,3.1,0.8c1.2,0,2.2-0.3,3.1-0.8s1.6-1.3,2.2-2.3
			c0.5-1,0.8-2.2,0.8-3.5c0-1.3-0.3-2.5-0.8-3.5c-0.5-1-1.2-1.8-2.2-2.3c-0.9-0.5-2-0.8-3.1-0.8C323.9,290,322.9,290.3,322,290.8z"
			/>
		<path class="st3" d="M345.3,305.1l-4.4-6.9h-2.4v6.9h-2.2v-16.9h5.6c1.9,0,3.4,0.5,4.3,1.4c1,0.9,1.4,2.1,1.4,3.7
			c0,1.4-0.4,2.5-1.2,3.3c-0.8,0.8-1.9,1.4-3.3,1.6l4.6,7H345.3z M338.5,296.6h3.2c2.5,0,3.7-1.1,3.7-3.3c0-2.2-1.2-3.3-3.7-3.3
			h-3.2V296.6z"/>
		<path class="st3" d="M360.4,302.9c-0.4,0.7-1,1.2-1.8,1.7c-0.8,0.4-1.8,0.6-2.9,0.6c-1.1,0-2.1-0.2-3-0.6s-1.6-1-2.1-1.7
			c-0.5-0.7-0.8-1.5-0.9-2.4h2.3c0,0.5,0.2,0.9,0.5,1.4s0.7,0.8,1.2,1.1c0.5,0.3,1.1,0.4,1.9,0.4c1,0,1.7-0.3,2.2-0.8
			c0.5-0.5,0.8-1.2,0.8-2c0-0.7-0.2-1.2-0.5-1.7c-0.4-0.4-0.8-0.8-1.3-1c-0.5-0.2-1.2-0.5-2.2-0.8c-1.1-0.4-1.9-0.7-2.6-1
			s-1.2-0.8-1.7-1.4s-0.7-1.4-0.7-2.5c0-0.9,0.2-1.7,0.6-2.3c0.4-0.7,1-1.2,1.8-1.6c0.8-0.4,1.7-0.6,2.8-0.6c1.7,0,3,0.4,4,1.2
			c1,0.8,1.5,1.8,1.7,3.1h-2.4c-0.1-0.7-0.5-1.3-1-1.8c-0.6-0.5-1.3-0.8-2.3-0.8c-0.9,0-1.6,0.2-2.1,0.7c-0.5,0.5-0.8,1.1-0.8,1.9
			c0,0.7,0.2,1.2,0.5,1.6c0.3,0.4,0.8,0.7,1.3,1s1.2,0.5,2.1,0.8c1.1,0.4,2,0.7,2.6,1c0.7,0.3,1.2,0.8,1.7,1.5
			c0.5,0.6,0.7,1.5,0.7,2.6C361,301.5,360.8,302.2,360.4,302.9z"/>
	</g>
</g>
</svg>
